<svg
    version="1.0"
    xmlns="http://www.w3.org/2000/svg"
    width="50pt"
    height="40pt"
    viewBox="0 0 130.000000 133.000000"
    preserveAspectRatio="xMidYMid meet"
  >
    <g
      transform="translate(0.000000,133.000000) scale(0.100000,-0.100000)"
      fill="#2176ff"
      stroke="none"
    >
      <path
        d="M572 1229 c-131 -17 -246 -74 -342 -169 -322 -322 -177 -866 265
-996 80 -23 230 -23 310 0 208 61 368 224 421 427 23 85 22 227 0 304 -85 290
-359 472 -654 434z m167 -105 c78 -39 106 -87 106 -180 0 -64 -3 -77 -30 -115
-35 -49 -88 -80 -150 -87 -62 -7 -146 35 -183 91 -23 35 -27 51 -27 112 0 61
4 78 27 112 31 48 113 93 168 93 20 0 60 -12 89 -26z m66 -449 c86 -22 178
-70 214 -111 31 -35 31 -35 31 -154 l0 -120 -400 0 -400 0 0 119 c0 114 1 121
26 150 14 17 63 49 108 72 136 67 274 82 421 44z"
      />
    </g>
</svg>