<?xml version="1.0" encoding="iso-8859-1"?>
<!-- Generator: Adobe Illustrator 19.0.0, SVG Export Plug-In . SVG Version: 6.00 Build 0)  -->
<svg version="1.1" id="Layer_1" xmlns="http://www.w3.org/2000/svg" xmlns:xlink="http://www.w3.org/1999/xlink" x="0px" y="0px"
	 viewBox="0 0 506.4 506.4" style="enable-background:new 0 0 506.4 506.4;" xml:space="preserve">
<circle style="fill:#DF5C4E;" cx="253.2" cy="253.2" r="249.2"/>
<path style="fill:#F4EFEF;" d="M373.2,244.8c0-6.4-5.2-11.6-11.6-11.6H140.8c-6.4,0-11.6,5.2-11.6,11.6v16.8
	c0,6.4,5.2,11.6,11.6,11.6h220.8c6.4,0,11.6-5.2,11.6-11.6V244.8z"/>
<path d="M253.2,506.4C113.6,506.4,0,392.8,0,253.2S113.6,0,253.2,0s253.2,113.6,253.2,253.2S392.8,506.4,253.2,506.4z M253.2,8
	C118,8,8,118,8,253.2s110,245.2,245.2,245.2s245.2-110,245.2-245.2S388.4,8,253.2,8z"/>
<path d="M357.6,277.2H136.8c-8.8,0-15.6-7.2-15.6-15.6v-16.8c0-8.8,7.2-15.6,15.6-15.6h220.8c8.8,0,15.6,7.2,15.6,15.6v16.8
	C373.2,270,366,277.2,357.6,277.2z M136.8,237.2c-4.4,0-7.6,3.6-7.6,7.6v16.8c0,4.4,3.6,7.6,7.6,7.6h220.8c4.4,0,7.6-3.6,7.6-7.6
	v-16.8c0-4.4-3.6-7.6-7.6-7.6H136.8z"/>
<g>
</g>
<g>
</g>
<g>
</g>
<g>
</g>
<g>
</g>
<g>
</g>
<g>
</g>
<g>
</g>
<g>
</g>
<g>
</g>
<g>
</g>
<g>
</g>
<g>
</g>
<g>
</g>
<g>
</g>
</svg>
