<?xml version="1.0" standalone="no"?>
<!DOCTYPE svg PUBLIC "-//W3C//DTD SVG 20010904//EN"
 "http://www.w3.org/TR/2001/REC-SVG-20010904/DTD/svg10.dtd">
<svg version="1.0" xmlns="http://www.w3.org/2000/svg"
 width="500.000000pt" height="200.000000pt" viewBox="0 0 500.000000 200.000000"
 preserveAspectRatio="xMidYMid meet">

<g transform="translate(0.000000,200.000000) scale(0.100000,-0.100000)"
fill="#24292e" stroke="none">
<path fill="#0366d6" d="M4267 1756 c-27 -13 -61 -36 -76 -50 -32 -31 -39 -32 -65 -7 -42 38
-97 61 -164 67 -60 6 -74 3 -123 -19 -61 -30 -97 -63 -128 -121 -69 -132 -42
-274 72 -378 l52 -47 -17 -43 c-9 -24 -19 -51 -23 -60 -11 -28 32 -23 123 15
95 41 165 86 212 139 l35 40 48 -37 c26 -20 47 -42 47 -50 0 -7 -9 -34 -20
-60 -11 -26 -20 -49 -20 -51 0 -12 56 0 121 26 146 61 240 142 286 246 23 53
22 184 -2 239 -46 106 -125 162 -239 171 -62 4 -77 2 -119 -20z"/>
<path d="M2373 1530 c-106 -22 -198 -87 -234 -165 -27 -59 -26 -168 4 -219 46
-81 117 -116 321 -162 134 -30 211 -65 231 -104 35 -67 4 -148 -70 -185 -61
-30 -212 -28 -279 5 -59 28 -101 84 -110 145 l-7 45 -71 0 -71 0 5 -58 c17
-187 188 -303 423 -289 205 12 330 107 342 260 7 82 -10 139 -54 188 -52 57
-113 85 -278 125 -175 42 -192 48 -227 82 -21 19 -28 35 -28 64 0 92 65 140
190 141 118 1 188 -45 211 -140 l11 -43 71 0 70 0 -6 55 c-11 108 -81 196
-187 236 -62 23 -193 33 -257 19z"/>
<path d="M3145 1525 c-157 -40 -242 -146 -233 -288 8 -138 84 -194 338 -252
200 -45 250 -78 250 -168 0 -44 -4 -54 -38 -87 -29 -29 -50 -40 -97 -50 -167
-35 -318 39 -334 163 l-6 42 -74 3 -74 3 6 -57 c11 -106 72 -196 167 -244 127
-65 318 -66 441 -4 109 55 159 131 159 244 -1 159 -86 230 -350 291 -143 33
-199 56 -224 91 -37 53 -8 136 60 168 47 23 132 30 197 17 57 -12 113 -67 128
-127 l13 -50 68 0 68 0 0 38 c0 106 -77 211 -185 251 -77 29 -200 36 -280 16z"/>
<path d="M604 1506 c-3 -7 -4 -38 -2 -67 l3 -54 153 -3 152 -3 0 -409 0 -410
75 0 75 0 0 410 0 409 153 3 152 3 0 65 0 65 -378 3 c-314 2 -378 0 -383 -12z"/>
<path d="M1407 1513 c-4 -3 -7 -219 -7 -480 l0 -473 335 0 335 0 0 65 0 65
-260 0 -260 0 0 145 0 145 228 0 c125 0 233 4 240 9 9 5 12 26 10 67 l-3 59
-237 3 -238 2 0 130 0 130 248 0 c180 0 251 3 260 12 13 13 16 85 6 112 -5 14
-44 16 -328 16 -178 0 -326 -3 -329 -7z"/>
</g>
</svg>
